# xmcd
#
# Track frame offsets: 
#        150
#        12973
#        25479
#        38499
#        48706
#        61446
#        73002
#        85212
#        97705
#        110950
#        122372
#        134207
#        145357
#        157049
#        170282
#        179784
#
# Disc length: 2575 seconds
#
# Revision: 0
# Processed by: cddbd v1.5.2PL0 Copyright (c) Steve Scherf et al.
# Submitted via: ExactAudioCopy v0.99pb5
#
DISCID=e90a0d10
DTITLE=Various Artist - Country and Western Hits  cd10
DYEAR=2000
DGENRE=Country
TTITLE0=Hank Snow - I'm moving on
TTITLE1=Rd Fuley - Alabama jubilee
TTITLE2=Ferliny Husky - You'll die a tousand deaths
TTITLE3=Sheb Wooley - A cowboy ought to be a single
TTITLE4=Roy Acuff - Wabush cannonball
TTITLE5=Eddy Arnold - Bouquet of roses
TTITLE6=Merle Travis - Steel guitar rag
TTITLE7=Cowboy Copas - Down in nashville tennessee
TTITLE8=Patsy Montana - Shine on rocky mountain moonlight
TTITLE9=Johnny Horton - Smokey joe's barbecue
TTITLE10=Don Gibson - Roses are red
TTITLE11=Chet Atkins - San antonio rose
TTITLE12=Marty Robbins - That's allright mama
TTITLE13=Little Jimmy Dickens - Hot diggity dog
TTITLE14=Hank Thompson - A cat has nine lives
TTITLE15=Hardrock Gunter - You played on my piano
EXTD=
EXTT0=
EXTT1=
EXTT2=
EXTT3=
EXTT4=
EXTT5=
EXTT6=
EXTT7=
EXTT8=
EXTT9=
EXTT10=
EXTT11=
EXTT12=
EXTT13=
EXTT14=
EXTT15=
PLAYORDER=
